<svg style="display:none"><defs><svg id="op3-icons-a-time-1" xmlns="http://www.w3.org/2000/svg" viewBox="0 0 32 32"><path fill="currentColor" d="M14 0C9.594 0 6 3.594 6 8c0 2.203.87 4.397 2.283 6.09C9.697 15.783 11.711 17 14 17s4.303-1.217 5.717-2.91C21.13 12.397 22 10.203 22 8c0-4.406-3.594-8-8-8zm0 2c3.326 0 6 2.674 6 6 0 1.663-.699 3.468-1.818 4.809C17.062 14.149 15.577 15 14 15s-3.062-.85-4.182-2.191C8.698 11.469 8 9.663 8 8c0-3.326 2.674-6 6-6zm10 14c-4.406 0-8 3.594-8 8s3.594 8 8 8 8-3.594 8-8-3.594-8-8-8zm0 2c3.326 0 6 2.674 6 6s-2.674 6-6 6-6-2.674-6-6 2.674-6 6-6zm-10 1c-5.71 0-9.533 1.198-11.633 2.129A4 4 0 000 24.783V31h15v-2H2v-4.217c0-.796.456-1.505 1.178-1.826C5.038 22.132 8.569 21 14 21h1v-2h-1zm9 1v5h5v-2h-3v-3h-2z"/></svg><svg id="op3-icons-chart-bar-52-2" xmlns="http://www.w3.org/2000/svg" viewBox="0 0 32 32"><path fill="currentColor" d="M23 3c-.6 0-1 .4-1 1v24c0 .6.4 1 1 1h6c.6 0 1-.4 1-1V4c0-.6-.4-1-1-1h-6zm-11 8c-.6 0-1 .4-1 1v16c0 .6.4 1 1 1h6c.6 0 1-.4 1-1V12c0-.6-.4-1-1-1h-6zM1 19c-.6 0-1 .4-1 1v8c0 .6.4 1 1 1h6c.6 0 1-.4 1-1v-8c0-.6-.4-1-1-1H1z"/></svg><svg id="op3-icons-check-2-2" xmlns="http://www.w3.org/2000/svg" viewBox="0 0 32 32"><path fill="currentColor" d="M28.586 5.586L12 22.172l-8.586-8.586-2.828 2.828L12 27.828 31.414 8.414l-2.828-2.828z"/></svg><svg id="op3-icons-check-circle-07-1" xmlns="http://www.w3.org/2000/svg" viewBox="0 0 32 32"><path fill="currentColor" d="M30 1.586l-15 15-5-5L8.586 13 15 19.414 31.414 3 30 1.586zM15 3C7.263 3 1 9.263 1 17s6.263 14 14 14 14-6.263 14-14c0-1.948-.432-3.772-1.072-5.371l-1.856.742c.56 1.4.928 2.977.928 4.629 0 6.663-5.337 12-12 12S3 23.663 3 17 8.337 5 15 5c2.313 0 4.524.648 6.355 1.838l1.09-1.676C20.276 3.752 17.687 3 15 3z"/></svg><svg id="op3-icons-check-simple-2" xmlns="http://www.w3.org/2000/svg" viewBox="0 0 32 32"><path fill="currentColor" d="M26 4c-.25 0-.5.1-.7.3L12 17.6l-5.301-5.3c-.4-.4-.998-.4-1.398 0l-4 4c-.4.4-.4.998 0 1.398l10 10c.2.2.499.301.699.301s.499-.1.699-.3l18-18c.4-.4.4-1 0-1.399l-4-4c-.2-.2-.45-.3-.7-.3z"/></svg><svg id="op3-icons-coins-2" xmlns="http://www.w3.org/2000/svg" viewBox="0 0 32 32"><path fill="currentColor" d="M7 2C3.134 2 0 3.343 0 5s3.134 3 7 3 7-1.343 7-3-3.134-3-7-3zm18 4c-3.866 0-7 1.343-7 3s3.134 3 7 3 7-1.343 7-3-3.134-3-7-3zM0 8.287V10c0 1.657 3.134 3 7 3s7-1.343 7-3V8.287C12.403 9.36 9.951 10 7 10s-5.403-.64-7-1.713zm32 4C30.403 13.36 27.951 14 25 14a17.8 17.8 0 01-2.969-.24c1.996.69 3.363 1.815 3.809 3.217C29.309 16.797 32 15.535 32 14v-1.713zm-32 1V15c0 1.657 3.134 3 7 3a16.5 16.5 0 001.004-.033c.012-1.263.706-2.361 1.916-3.201A17.81 17.81 0 017 15c-2.951 0-5.403-.64-7-1.713zM17 15c-3.866 0-7 1.343-7 3s3.134 3 7 3 7-1.343 7-3-3.134-3-7-3zm15 2.287c-1.412.95-3.496 1.558-6 1.686v2.994c3.391-.208 6-1.456 6-2.967v-1.713zm-32 1V20c0 1.657 3.134 3 7 3 .34 0 .673-.013 1-.033v-2.994A20.37 20.37 0 017 20c-2.951 0-5.403-.64-7-1.713zm10 3V23c0 1.657 3.134 3 7 3s7-1.343 7-3v-1.713C22.403 22.36 19.951 23 17 23s-5.403-.64-7-1.713zm22 1c-1.412.95-3.496 1.558-6 1.686v2.994c3.391-.208 6-1.456 6-2.967v-1.713zm-32 1V25c0 1.657 3.134 3 7 3 .34 0 .673-.013 1-.033v-2.994A20.37 20.37 0 017 25c-2.951 0-5.403-.64-7-1.713zm10 3V28c0 1.657 3.134 3 7 3s7-1.343 7-3v-1.713C22.403 27.36 19.951 28 17 28s-5.403-.64-7-1.713z"/></svg><svg id="op3-icons-email-83-1" xmlns="http://www.w3.org/2000/svg" viewBox="0 0 32 32"><path fill="currentColor" d="M0 4v24h32V4H0zm2 2h28v3.4l-14 7.467L2 9.4V6zm0 5.666l14 7.467 14-7.467V26H2V11.666z"/></svg><svg id="op3-icons-minimal-down" xmlns="http://www.w3.org/2000/svg" viewBox="0 0 32 32"><path fill="currentColor" d="M2 7.586L.586 9 16 24.414 31.414 9 30 7.586l-14 14-14-14z"/></svg><svg id="op3-icons-minimal-up" xmlns="http://www.w3.org/2000/svg" viewBox="0 0 32 32"><path fill="currentColor" d="M16 7.586L.586 23 2 24.414l14-14 14 14L31.414 23 16 7.586z"/></svg><svg id="op3-icons-shape-oval-2" xmlns="http://www.w3.org/2000/svg" viewBox="0 0 32 32"><path fill="currentColor" d="M16 1C2.635 1-4.054 17.156 5.395 26.605 14.844 36.054 31 29.364 31 16c-.01-8.28-6.72-14.991-15-15z"/></svg><svg id="op3-icons-single-01-1" xmlns="http://www.w3.org/2000/svg" viewBox="0 0 32 32"><path fill="currentColor" d="M16 0c-4.406 0-8 3.594-8 8v2c0 4.406 3.594 8 8 8s8-3.594 8-8V8c0-4.406-3.594-8-8-8zm0 2c3.326 0 6 2.674 6 6v2c0 3.326-2.674 6-6 6s-6-2.674-6-6V8c0-3.326 2.674-6 6-6zm0 18c-5.332 0-9.288 1.011-11.711 1.887a4.998 4.998 0 00-3.29 4.7V32h30v-5.412a4.998 4.998 0 00-3.288-4.701C25.288 21.01 21.332 20 16 20zm0 2c5.08 0 8.8.961 11.031 1.768A2.98 2.98 0 0129 26.588V30H3v-3.412c0-1.27.78-2.39 1.969-2.82C7.2 22.96 10.92 22 15.999 22z"/></svg><svg id="op3-icons-small-right" xmlns="http://www.w3.org/2000/svg" viewBox="0 0 32 32"><path fill="currentColor" d="M13 8.586L11.586 10l6 6-6 6L13 23.414 20.414 16 13 8.586z"/></svg><svg id="op3-icons-wallet-43-1" xmlns="http://www.w3.org/2000/svg" viewBox="0 0 32 32"><path fill="currentColor" d="M4 1C1.803 1 0 2.803 0 5v21c0 2.75 2.25 5 5 5h24v-8h3v-8h-3V7H4c-1.117 0-2-.883-2-2s.883-2 2-2h17v2h2V1H4zM2 8.44c.426.25.897.422 1.402.5.194.036.392.06.598.06h23v6h-3c-2.197 0-4 1.803-4 4s1.803 4 4 4h3v6H5c-1.669 0-3-1.331-3-3V8.439zM24 17h6v4h-6c-1.117 0-2-.883-2-2s.883-2 2-2z"/></svg></defs></svg>